<svg id="whatsapp" xmlns="http://www.w3.org/2000/svg" xmlns:xlink="http://www.w3.org/1999/xlink" width="60" height="60" viewBox="0 0 60 60">
  <defs>
    <linearGradient id="linear-gradient" x1="0.5" y1="1" x2="0.5" gradientUnits="objectBoundingBox">
      <stop offset="0" stop-color="#02d648"/>
      <stop offset="1" stop-color="#36f46c"/>
    </linearGradient>
  </defs>
  <circle id="Circle_BG" data-name="Circle BG" cx="30" cy="30" r="30" fill="url(#linear-gradient)"/>
  <g id="Whatsap_logo" data-name="Whatsap logo" transform="translate(13 12)">
    <g id="WA_Logo_2_">
      <g id="Grupo_44" data-name="Grupo 44">
        <path id="Trazado_8" data-name="Trazado 8" d="M56.075,28.286A17.421,17.421,0,0,0,43.883,23.3,16.9,16.9,0,0,0,28.955,48.7L26.5,57.487l9.134-2.374a17.557,17.557,0,0,0,8.249,2.058h0A17.1,17.1,0,0,0,61.105,40.235,16.618,16.618,0,0,0,56.075,28.286ZM43.883,54.321h0A14.159,14.159,0,0,1,36.6,52.343l-.523-.277-5.432,1.385,1.449-5.183-.362-.554a13.745,13.745,0,0,1-2.173-7.478A14.239,14.239,0,0,1,43.883,26.149a14.47,14.47,0,0,1,10.14,4.115,13.92,13.92,0,0,1,4.185,9.971A14.213,14.213,0,0,1,43.883,54.321ZM51.73,43.8c-.443-.2-2.535-1.227-2.937-1.385s-.684-.2-.966.2c-.282.435-1.127,1.385-1.368,1.662s-.483.317-.925.119a11.754,11.754,0,0,1-3.461-2.1,13.136,13.136,0,0,1-2.414-2.928.6.6,0,0,1,.2-.87,6.341,6.341,0,0,0,.644-.752,6.862,6.862,0,0,0,.443-.712.72.72,0,0,0-.04-.752c-.121-.2-.966-2.295-1.328-3.126s-.724-.712-.966-.712h-.845a1.748,1.748,0,0,0-1.167.514,4.741,4.741,0,0,0-1.489,3.522,7.928,7.928,0,0,0,1.771,4.392c.241.277,3.018,4.55,7.364,6.41,1.046.435,1.811.712,2.455.91a5.874,5.874,0,0,0,2.7.158,4.38,4.38,0,0,0,2.9-2.018,3.314,3.314,0,0,0,.241-2.018C52.454,44.113,52.172,43.994,51.73,43.8Z" transform="translate(-26.5 -23.3)" fill="#fff" fill-rule="evenodd"/>
      </g>
    </g>
  </g>
  <circle id="Circle_Red" data-name="Circle Red" cx="6.5" cy="6.5" r="6.5" transform="translate(44)" fill="red"/>
</svg>
